<svg height="512pt" viewBox="0 0 512.01182 512" width="512pt" xmlns="http://www.w3.org/2000/svg"><path d="m25.601562 8.539062h341.332032c9.425781 0 17.066406 7.640626 17.066406 17.066407v256c0 9.425781-7.640625 17.066406-17.066406 17.066406h-341.332032c-9.425781 0-17.066406-7.640625-17.066406-17.066406v-256c0-9.425781 7.640625-17.066407 17.066406-17.066407zm0 0" fill="#a4c2f7"/><path d="m25.601562 8.539062h315.730469c9.425781 0 17.066407 7.640626 17.066407 17.066407v256c0 9.425781-7.640626 17.066406-17.066407 17.066406h-315.730469c-9.425781 0-17.066406-7.640625-17.066406-17.066406v-256c0-9.425781 7.640625-17.066407 17.066406-17.066407zm0 0" fill="#e3e7f2"/><path d="m8.535156 51.207031h375.464844v204.800781h-375.464844zm0 0" fill="#a4c2f7"/><path d="m8.535156 51.207031h349.863282v204.800781h-349.863282zm0 0" fill="#e3e7f2"/><path d="m384 152.070312v103.9375h-375.464844v-69.035156c57.171875-44.800781 175.359375-99.757812 375.464844-34.902344zm0 0" fill="#a4c2f7"/><path d="m469.332031 366.9375v59.734375c-14.632812-.113281-29.113281-3.011719-42.664062-8.53125l-2.648438-1.367187c4.667969-6.214844 8.058594-13.292969 9.984375-20.820313 2.015625-10.40625 8.550782-19.378906 17.835938-24.492187 5.382812-2.894532 11.382812-4.449219 17.492187-4.523438zm0 0" fill="#a4c2f7"/><path d="m503.464844 403.207031v14.933594c-10.5625 5.445313-22.246094 8.367187-34.132813 8.53125v-59.734375c1.425781.003906 2.851563.089844 4.269531.257812 17.539063 2.878907 30.277344 18.238282 29.863282 36.011719zm0 0" fill="#a4c2f7"/><path d="m503.464844 418.140625v42.664063c0 17.066406-8.53125 42.667968-42.664063 42.667968-4.6875.042969-9.371093-.328125-13.996093-1.109375-24.832032-4.097656-37.203126-19.710937-37.203126-41.558593-.511718-13.019532 2.910157-25.894532 9.8125-36.949219 1.449219-2.472657 3.070313-4.777344 4.605469-7.082031l2.648438 1.367187c9.042969 3.554687 18.460937 6.074219 28.074219 7.507813 4.824218.757812 9.707031 1.101562 14.589843 1.023437 2.855469-.054687 5.707031-.28125 8.535157-.683594 8.9375-1.039062 17.613281-3.699219 25.597656-7.847656zm0 0" fill="#a4c2f7"/><path d="m477.867188 418.140625v42.664063c1.371093 19.636718-11.84375 37.316406-31.0625 41.558593-24.832032-4.097656-37.203126-19.710937-37.203126-41.558593-.511718-13.019532 2.910157-25.894532 9.8125-36.949219 7.960938 1.925781 16.128907 2.875 24.320313 2.816406 3.6875-.078125 7.367187-.421875 11.007813-1.023437 8.066406-1.226563 15.875-3.761719 23.125-7.507813zm0 0" fill="#e3e7f2"/><path d="m247.464844 349.871094h-85.332032l17.066407-51.199219h51.199219zm0 0" fill="#a4c2f7"/><path d="m34.132812 384.007812h307.199219c14.140625 0 25.601563 11.460938 25.601563 25.597657v68.265625c0 14.140625-11.460938 25.601562-25.601563 25.601562h-307.199219c-14.136718 0-25.597656-11.460937-25.597656-25.601562v-68.265625c0-14.136719 11.460938-25.597657 25.597656-25.597657zm0 0" fill="#a4c2f7"/><path d="m468.480469 423.207031c-1.101563-.273437-2.183594-.511719-3.285157-.851562 1.132813.339843 2.21875.578125 3.285157.851562zm0 0" fill="#fff"/><path d="m480.339844 425.648438.257812-.050782c-.640625-.085937-1.28125-.1875-1.929687-.289062.554687.082031 1.128906.261718 1.671875.339844zm0 0" fill="#fff"/><path d="m204.800781 298.671875h-25.601562l-17.066407 51.199219h25.601563zm0 0" fill="#fff"/><path d="m25.601562 298.671875h25.597657c-9.414063-.027344-17.039063-7.652344-17.066407-17.066406v-256c.027344-9.414063 7.652344-17.039063 17.066407-17.066407h-25.597657c-9.414062.027344-17.039062 7.652344-17.066406 17.066407v256c.027344 9.414062 7.652344 17.039062 17.066406 17.066406zm0 0" fill="#fff"/><path d="m34.132812 503.472656h25.601563c-14.140625 0-25.601563-11.460937-25.601563-25.601562v-68.265625c0-14.136719 11.460938-25.597657 25.601563-25.597657h-25.601563c-14.136718 0-25.597656 11.460938-25.597656 25.597657v68.265625c0 14.140625 11.460938 25.601562 25.597656 25.601562zm0 0" fill="#fff"/><path d="m446.804688 502.363281c4.625.78125 9.308593 1.152344 13.996093 1.109375 3.878907.019532 7.75-.355468 11.554688-1.117187-24.800781-4.113281-37.15625-19.722657-37.15625-41.550781-.507813-13.019532 2.910156-25.894532 9.8125-36.949219 1.453125-2.472657 3.074219-4.777344 4.609375-7.082031 4.664062-6.214844 8.058594-13.292969 9.984375-20.820313 2.015625-10.40625 8.550781-19.378906 17.835937-24.492187 1.40625-.722657 2.851563-1.375 4.324219-1.953126-2.605469-1.136718-5.351563-1.914062-8.164063-2.3125-1.417968-.167968-2.84375-.253906-4.269531-.257812-6.109375.074219-12.109375 1.628906-17.492187 4.523438-9.285156 5.113281-15.820313 14.085937-17.835938 24.492187-1.925781 7.527344-5.316406 14.605469-9.984375 20.820313-1.535156 2.304687-3.15625 4.609374-4.605469 7.082031-6.902343 11.054687-10.324218 23.929687-9.8125 36.949219 0 21.847656 12.371094 37.460937 37.203126 41.558593zm-3.925782-79.15625c-1.101562-.273437-2.183594-.511719-3.285156-.851562 1.136719.339843 2.21875.578125 3.285156.851562zm0 0" fill="#fff"/><path d="m366.933594 307.207031h-341.332032c-14.140624 0-25.601562-11.460937-25.601562-25.601562v-256c0-14.136719 11.460938-25.5976565 25.601562-25.5976565h341.332032c14.136718 0 25.601562 11.4609375 25.601562 25.5976565v256c0 14.140625-11.464844 25.601562-25.601562 25.601562zm-341.332032-290.132812c-4.714843 0-8.535156 3.820312-8.535156 8.53125v256c0 4.714843 3.820313 8.535156 8.535156 8.535156h341.332032c4.710937 0 8.53125-3.820313 8.53125-8.535156v-256c0-4.710938-3.820313-8.53125-8.53125-8.53125zm0 0" fill="#428dff"/><path d="m17.066406 51.207031v204.800781h-17.066406v-204.800781zm0 0" fill="#fff"/><g fill="#428dff"><path d="m8.535156 93.871094c4.710938 0 8.53125-3.820313 8.53125-8.53125v-34.132813h-17.066406v34.132813c0 4.710937 3.820312 8.53125 8.535156 8.53125zm0 0"/><path d="m0 256.007812h17.066406v-102.402343c0-4.710938-3.820312-8.53125-8.53125-8.53125-4.714844 0-8.535156 3.820312-8.535156 8.53125zm0 0"/><path d="m17.066406 119.472656c-.03125-2.257812-.917968-4.421875-2.472656-6.058594l-1.28125-1.023437c-.476562-.324219-.992188-.582031-1.535156-.769531-.484375-.246094-1.003906-.417969-1.539063-.511719-.5625-.09375-1.132812-.152344-1.703125-.171875-2.261718.035156-4.425781.917969-6.058594 2.476562-.773437.816407-1.382812 1.773438-1.792968 2.816407-1.289063 3.183593-.5859378 6.824219 1.792968 9.300781.8125.769531 1.769532 1.378906 2.8125 1.792969 1.027344.4375 2.128907.667969 3.246094.683593 2.257813-.035156 4.421875-.917968 6.058594-2.476562 1.554688-1.636719 2.441406-3.800781 2.472656-6.058594zm0 0"/><path d="m384 264.539062h-375.464844c-4.714844 0-8.535156-3.820312-8.535156-8.53125 0-4.714843 3.820312-8.535156 8.535156-8.535156h366.929688v-187.734375h-366.929688c-4.714844 0-8.535156-3.820312-8.535156-8.53125 0-4.714843 3.820312-8.535156 8.535156-8.535156h375.464844c4.710938 0 8.535156 3.820313 8.535156 8.535156v204.800781c0 4.710938-3.824218 8.53125-8.535156 8.53125zm0 0"/><path d="m460.800781 512.007812c-37.402343 0-59.734375-19.140624-59.734375-51.203124-.546875-17.265626 4.855469-34.195313 15.308594-47.949219 4.304688-5.578125 7.453125-11.960938 9.269531-18.773438 2.554688-12.898437 10.726563-23.984375 22.296875-30.242187l3.890625 7.597656-3.890625-7.597656c8.175782-4.394532 17.503906-6.179688 26.726563-5.117188 21.855469 3.324219 37.839843 22.363282 37.332031 44.464844v57.617188c0 23.621093-13.40625 51.203124-51.199219 51.203124zm8.53125-136.535156c-4.75.070313-9.414062 1.289063-13.59375 3.550782-7.042969 3.949218-11.957031 10.828124-13.414062 18.773437-2.230469 8.910156-6.230469 17.277344-11.765625 24.609375-8.515625 10.949219-12.910156 24.539062-12.425782 38.398438 0 28.210937 23.203126 34.132812 42.667969 34.132812 9.296875.886719 18.5-2.425781 25.101563-9.027344 6.605468-6.601562 9.914062-15.808594 9.03125-25.105468v-57.617188c.59375-7.148438-1.839844-14.214844-6.707032-19.484375-4.867187-5.269531-11.71875-8.253906-18.894531-8.230469zm0 0"/><path d="m469.332031 435.207031c-4.710937 0-8.53125-3.820312-8.53125-8.535156v-59.734375c0-4.710938 3.820313-8.53125 8.53125-8.53125 4.714844 0 8.535157 3.820312 8.535157 8.53125v59.734375c0 4.714844-3.820313 8.535156-8.535157 8.535156zm0 0"/><path d="m467.96875 435.273438c-15.230469-.300782-30.273438-3.410157-44.375-9.171876-4.277344-1.769531-6.363281-6.628906-4.699219-10.949218 1.660157-4.320313 6.464844-6.527344 10.828125-4.976563 27.246094 10.496094 50.089844 10.625 69.808594.386719 4.1875-2.167969 9.335938-.535156 11.503906 3.652344 2.167969 4.183594.535156 9.335937-3.652344 11.503906-12.164062 6.347656-25.695312 9.628906-39.414062 9.554688zm0 0"/><path d="m426.667969 341.339844c-2.265625 0-4.433594-.902344-6.035157-2.5l-8.53125-8.535156c-3.234374-3.347657-3.1875-8.667969.101563-11.960938 3.292969-3.292969 8.613281-3.339844 11.964844-.105469l8.53125 8.535157c2.441406 2.441406 3.171875 6.109374 1.847656 9.296874-1.320313 3.1875-4.429687 5.269532-7.878906 5.269532zm0 0"/><path d="m409.601562 366.9375h-17.066406c-4.714844 0-8.535156-3.820312-8.535156-8.53125 0-4.714844 3.820312-8.535156 8.535156-8.535156h17.066406c4.710938 0 8.53125 3.820312 8.53125 8.535156 0 4.710938-3.820312 8.53125-8.53125 8.53125zm0 0"/><path d="m247.464844 358.40625h-85.332032c-2.742187 0-5.320312-1.316406-6.921874-3.542969-1.605469-2.222656-2.042969-5.085937-1.175782-7.6875l17.066406-51.199219c1.160157-3.488281 4.425782-5.839843 8.097657-5.835937h51.199219c3.675781-.003906 6.9375 2.347656 8.101562 5.835937l17.066406 51.199219c.863282 2.601563.429688 5.464844-1.175781 7.6875-1.605469 2.226563-4.179687 3.542969-6.925781 3.542969zm-73.496094-17.066406h61.664062l-11.386718-34.132813h-38.894532zm0 0"/><path d="m264.535156 358.40625h-119.46875c-4.710937 0-8.53125-3.820312-8.53125-8.535156 0-4.710938 3.820313-8.53125 8.53125-8.53125h119.46875c4.710938 0 8.53125 3.820312 8.53125 8.53125 0 4.714844-3.820312 8.535156-8.53125 8.535156zm0 0"/><path d="m238.933594 230.40625h-68.265625c-4.714844 0-8.535157-3.820312-8.535157-8.535156 0-4.710938 3.820313-8.53125 8.535157-8.53125h68.265625c4.710937 0 8.53125 3.820312 8.53125 8.53125 0 4.714844-3.820313 8.535156-8.53125 8.535156zm0 0"/><path d="m76.800781 93.871094h-34.132812c-4.714844 0-8.535157-3.820313-8.535157-8.53125 0-4.714844 3.820313-8.535156 8.535157-8.535156h34.132812c4.710938 0 8.53125 3.820312 8.53125 8.535156 0 4.710937-3.820312 8.53125-8.53125 8.53125zm0 0"/><path d="m145.066406 93.871094h-34.132812c-4.714844 0-8.535156-3.820313-8.535156-8.53125 0-4.714844 3.820312-8.535156 8.535156-8.535156h34.132812c4.714844 0 8.535156 3.820312 8.535156 8.535156 0 4.710937-3.820312 8.53125-8.535156 8.53125zm0 0"/><path d="m110.933594 128.007812h-34.132813c-4.714843 0-8.535156-3.824218-8.535156-8.535156 0-4.714844 3.820313-8.535156 8.535156-8.535156h34.132813c4.710937 0 8.53125 3.820312 8.53125 8.535156 0 4.710938-3.820313 8.535156-8.53125 8.535156zm0 0"/><path d="m179.199219 128.007812h-34.132813c-4.710937 0-8.53125-3.824218-8.53125-8.535156 0-4.714844 3.820313-8.535156 8.53125-8.535156h34.132813c4.714843 0 8.535156 3.820312 8.535156 8.535156 0 4.710938-3.820313 8.535156-8.535156 8.535156zm0 0"/><path d="m247.464844 128.007812h-34.132813c-4.710937 0-8.53125-3.824218-8.53125-8.535156 0-4.714844 3.820313-8.535156 8.53125-8.535156h34.132813c4.714844 0 8.535156 3.820312 8.535156 8.535156 0 4.710938-3.820312 8.535156-8.535156 8.535156zm0 0"/><path d="m145.066406 162.140625h-34.132812c-4.714844 0-8.535156-3.820313-8.535156-8.535156 0-4.710938 3.820312-8.53125 8.535156-8.53125h34.132812c4.714844 0 8.535156 3.820312 8.535156 8.53125 0 4.714843-3.820312 8.535156-8.535156 8.535156zm0 0"/><path d="m315.734375 128.007812h-34.132813c-4.714843 0-8.535156-3.824218-8.535156-8.535156 0-4.714844 3.820313-8.535156 8.535156-8.535156h34.132813c4.710937 0 8.53125 3.820312 8.53125 8.535156 0 4.710938-3.820313 8.535156-8.53125 8.535156zm0 0"/><path d="m213.332031 93.871094h-34.132812c-4.710938 0-8.53125-3.820313-8.53125-8.53125 0-4.714844 3.820312-8.535156 8.53125-8.535156h34.132812c4.714844 0 8.535157 3.820312 8.535157 8.535156 0 4.710937-3.820313 8.53125-8.535157 8.53125zm0 0"/><path d="m281.601562 93.871094h-34.136718c-4.710938 0-8.53125-3.820313-8.53125-8.53125 0-4.714844 3.820312-8.535156 8.53125-8.535156h34.136718c4.710938 0 8.53125 3.820312 8.53125 8.535156 0 4.710937-3.820312 8.53125-8.53125 8.53125zm0 0"/><path d="m349.867188 93.871094h-34.132813c-4.714844 0-8.535156-3.820313-8.535156-8.53125 0-4.714844 3.820312-8.535156 8.535156-8.535156h34.132813c4.710937 0 8.53125 3.820312 8.53125 8.535156 0 4.710937-3.820313 8.53125-8.53125 8.53125zm0 0"/><path d="m341.332031 512.007812h-307.199219c-18.851562 0-34.132812-15.285156-34.132812-34.136718v-68.265625c0-18.851563 15.28125-34.132813 34.132812-34.132813h307.199219c18.851563 0 34.132813 15.28125 34.132813 34.132813v68.265625c0 18.851562-15.28125 34.136718-34.132813 34.136718zm-307.199219-119.46875c-9.425781 0-17.066406 7.640626-17.066406 17.066407v68.265625c0 9.425781 7.640625 17.066406 17.066406 17.066406h307.199219c9.425781 0 17.066407-7.640625 17.066407-17.066406v-68.265625c0-9.425781-7.640626-17.066407-17.066407-17.066407zm0 0"/><path d="m273.066406 469.339844h-162.132812c-4.714844 0-8.535156-3.820313-8.535156-8.535156 0-4.710938 3.820312-8.53125 8.535156-8.53125h162.132812c4.714844 0 8.535156 3.820312 8.535156 8.53125 0 4.714843-3.820312 8.535156-8.535156 8.535156zm0 0"/><path d="m76.800781 469.339844h-34.132812c-4.714844 0-8.535157-3.820313-8.535157-8.535156 0-4.710938 3.820313-8.53125 8.535157-8.53125h34.132812c4.710938 0 8.53125 3.820312 8.53125 8.53125 0 4.714843-3.820312 8.535156-8.53125 8.535156zm0 0"/><path d="m59.734375 435.207031h-17.066406c-4.714844 0-8.535157-3.820312-8.535157-8.535156 0-4.710937 3.820313-8.53125 8.535157-8.53125h17.066406c4.710937 0 8.53125 3.820313 8.53125 8.53125 0 4.714844-3.820313 8.535156-8.53125 8.535156zm0 0"/><path d="m110.933594 435.207031h-17.066406c-4.714844 0-8.535157-3.820312-8.535157-8.535156 0-4.710937 3.820313-8.53125 8.535157-8.53125h17.066406c4.710937 0 8.53125 3.820313 8.53125 8.53125 0 4.714844-3.820313 8.535156-8.53125 8.535156zm0 0"/><path d="m162.132812 435.207031h-17.066406c-4.710937 0-8.53125-3.820312-8.53125-8.535156 0-4.710937 3.820313-8.53125 8.53125-8.53125h17.066406c4.714844 0 8.535157 3.820313 8.535157 8.53125 0 4.714844-3.820313 8.535156-8.535157 8.535156zm0 0"/><path d="m213.332031 435.207031h-17.066406c-4.710937 0-8.53125-3.820312-8.53125-8.535156 0-4.710937 3.820313-8.53125 8.53125-8.53125h17.066406c4.714844 0 8.535157 3.820313 8.535157 8.53125 0 4.714844-3.820313 8.535156-8.535157 8.535156zm0 0"/><path d="m264.535156 435.207031h-17.070312c-4.710938 0-8.53125-3.820312-8.53125-8.535156 0-4.710937 3.820312-8.53125 8.53125-8.53125h17.070312c4.710938 0 8.53125 3.820313 8.53125 8.53125 0 4.714844-3.820312 8.535156-8.53125 8.535156zm0 0"/><path d="m341.332031 435.207031h-42.664062c-4.714844 0-8.535157-3.820312-8.535157-8.535156 0-4.710937 3.820313-8.53125 8.535157-8.53125h42.664062c4.714844 0 8.535157 3.820313 8.535157 8.53125 0 4.714844-3.820313 8.535156-8.535157 8.535156zm0 0"/><path d="m341.332031 469.339844h-34.132812c-4.710938 0-8.53125-3.820313-8.53125-8.535156 0-4.710938 3.820312-8.53125 8.53125-8.53125h34.132812c4.714844 0 8.535157 3.820312 8.535157 8.53125 0 4.714843-3.820313 8.535156-8.535157 8.535156zm0 0"/><path d="m247.464844 187.738281c0 4.714844-3.820313 8.535157-8.53125 8.535157-4.714844 0-8.535156-3.820313-8.535156-8.535157 0-4.710937 3.820312-8.53125 8.535156-8.53125 4.710937 0 8.53125 3.820313 8.53125 8.53125zm0 0"/></g></svg>