<svg id="Layer_1" data-name="Layer 1" xmlns="http://www.w3.org/2000/svg" viewBox="0 0 1499.11 534.76"><defs><style>.cls-1{fill:#81c785;}.cls-2{fill:#e4ece3;}.cls-2,.cls-5{opacity:0.8;}.cls-3{fill:#0a6f39;}.cls-4{fill:none;stroke:#fff;stroke-miterlimit:10;stroke-width:6px;}.cls-5{fill:#e8efe8;}</style></defs><title>knowledgebase bg</title><rect class="cls-1" x="20.15" y="109.18" width="1291.21" height="399.72"/><ellipse class="cls-2" cx="704.08" cy="425.17" rx="114" ry="109.59"/><rect class="cls-3" y="485.3" width="1305.3" height="23.6"/><rect class="cls-3" x="42.44" y="422.91" width="324.71" height="73.26" rx="12"/><rect class="cls-3" x="134.1" y="373.72" width="236.32" height="40.43" rx="5"/><rect class="cls-2" x="121.75" y="323.71" width="236.32" height="40.43" rx="5"/><rect class="cls-3" x="229.48" y="336.26" width="86.67" height="4"/><rect class="cls-3" x="229.48" y="347.59" width="86.67" height="4"/><path class="cls-3" d="M684.87,293.79a42.8,42.8,0,0,0-79.62,28.52c-3.09,2-4.23,6.31-3.18,11l-13.79,7.51-1.67-3.07a2.74,2.74,0,0,0-3.71-1.1l-59,32.12a10,10,0,0,0-4,13.56l1.1,2a10,10,0,0,0,13.56,4l59-32.12a2.73,2.73,0,0,0,1.1-3.71L593,349.4l13.79-7.51c3.34,3.41,7.61,4.82,10.93,3.3a42.8,42.8,0,0,0,67.18-51.4Zm-21,51a34.74,34.74,0,1,1,16.71-20.68A34.51,34.51,0,0,1,663.9,344.77Z" transform="translate(21.72 108.08)"/><circle class="cls-4" cx="466.85" cy="278.78" r="32.65"/><circle class="cls-5" cx="521.79" cy="239.77" r="14.33"/><ellipse class="cls-2" cx="1269.01" cy="190.37" rx="230.1" ry="190.37"/><path class="cls-3" d="M1173.28,294.51c-.21,0-.42-.07-.62-.07h-15.57c-.2,0-.41.07-.63.07s-.42-.07-.62-.07H1110v19.79h115.15V294.44h-51.24C1173.7,294.44,1173.49,294.51,1173.28,294.51Z" transform="translate(21.72 108.08)"/><path class="cls-3" d="M1139.63,390h55.89L1215,322.15h-94.77Z" transform="translate(21.72 108.08)"/><path class="cls-3" d="M1127.9,212.64a3.89,3.89,0,0,1,2.39,3.14c1.59,10.62,9.64,18.41,19.09,18.47a19.39,19.39,0,0,0,3.8-.41v-3.7a6,6,0,0,0-2-4.49l-7.66-6.51c-5-4.27-5.92-12.3-2.17-17.93a11,11,0,0,1,7.48-5,10.19,10.19,0,0,1,4.39.27v-7.4c0-7.34,5.22-13.3,11.66-13.3s11.67,5.93,11.67,13.27v20.46l5.83-6.44a10.63,10.63,0,0,1,8.09-3.68h0c6.14-.08,11.17,5.52,11.24,12.52a13.64,13.64,0,0,1-3.27,9.1l-20.57,23.61a4.66,4.66,0,0,0-.53.78c11.77,1.82,22.9-6.61,26-19.69a3.73,3.73,0,0,1,2.49-2.81c13.35-3.9,21.39-19.39,18-34.6C1220.91,175.8,1211,167,1199.62,167h-.16a3.64,3.64,0,0,1-3.42-3.26c-3.17-20.11-20-33.48-37.7-29.86-10.59,2.16-19.54,10.16-23.92,21.35a3.56,3.56,0,0,1-2.64,2.29c-13.61,2.39-23,16.9-20.85,32.42,1.43,10.62,8,19.41,17,22.71Z" transform="translate(21.72 108.08)"/><path class="cls-3" d="M1169.56,286.52V247.67a13.08,13.08,0,0,1,3.22-8.55l20.69-23.59a5.33,5.33,0,0,0,0-6.82,3.9,3.9,0,0,0-3-1.36h0a4,4,0,0,0-3.07,1.34L1175.68,222a3.29,3.29,0,0,1-5.1-.09,4.4,4.4,0,0,1-1-2.7v-30c0-3.1-2-5.63-4.72-5.63s-4.71,2.53-4.71,5.63v14.15a4.14,4.14,0,0,1-2,3.56,3.27,3.27,0,0,1-3.75-.43l-1.5-1.33a3.92,3.92,0,0,0-6,.84l-.07.11a5.36,5.36,0,0,0,.88,6.79l7.63,6.51a14.45,14.45,0,0,1,4.82,10.81v56.38Z" transform="translate(21.72 108.08)"/></svg>