<svg height="512" viewBox="0 0 64 64" width="512" xmlns="http://www.w3.org/2000/svg"><g id="Order-Shopping_Cart-Wishlist-Paper-Commerce" data-name="Order-Shopping Cart-Wishlist-Paper-Commerce"><g fill="#bddbff"><path d="m16 3h33a5 5 0 0 0 0 10h-33a5 5 0 0 1 0-10z"/><path d="m16 51h33a5 5 0 0 0 0 10h-33a5 5 0 0 1 0-10z"/><path d="m47 24-.33 4h-4.67v-4z"/><path d="m46.67 28-.34 4h-4.33v-4z"/><path d="m46.33 32-.33 4h-4v-4z"/><circle cx="42" cy="42" r="2"/><path d="m38 32h4v4h-4z"/><path d="m38 28h4v4h-4z"/><path d="m38 24h4v4h-4z"/><path d="m34 32h4v4h-4z"/><path d="m34 28h4v4h-4z"/><path d="m34 24h4v4h-4z"/><circle cx="34" cy="42" r="2"/><path d="m30 32h4v4h-4z"/><path d="m30 28h4v4h-4z"/><path d="m30 24h4v4h-4z"/><path d="m25.41 20.59a1.955 1.955 0 0 1 .59 1.41 2.006 2.006 0 0 1 -2 2h-2a2.015 2.015 0 0 1 -2-2 2.006 2.006 0 0 1 2-2h2a1.955 1.955 0 0 1 1.41.59z"/></g><path d="m49 2h-33a6 6 0 0 0 -1 11.91v15.09h2v-15h32a1 1 0 0 0 0-2 4 4 0 1 1 4-4v48a4 4 0 1 1 -4-4 1 1 0 0 0 0-2h-32v-7h-2v7.09a6 6 0 0 0 1 11.91h33a6 6 0 0 0 6-6v-48a6 6 0 0 0 -6-6zm-4.47 10h-28.53a4 4 0 0 1 0-8h28.54a5.979 5.979 0 0 0 -.01 8zm-28.53 48a4 4 0 0 1 0-8h28.53a5.979 5.979 0 0 0 .01 8z" fill="#3d9ae2"/><path d="m46 39h-15v-2h15a1.01 1.01 0 0 0 1-.92l1-12a1.013 1.013 0 0 0 -.26-.76 1.029 1.029 0 0 0 -.74-.32h-16.59l-1.7-1.71a1.033 1.033 0 0 0 -.71-.29h-1.18a3.01 3.01 0 0 0 -2.82-2h-2a3 3 0 0 0 0 6h2a3.01 3.01 0 0 0 2.82-2h.77l1.41 1.41v15.59a1 1 0 0 0 1 1h1.18a3 3 0 1 0 5.64 0h2.36a3 3 0 1 0 5.64 0h1.18a1 1 0 0 1 1 1h2a3.009 3.009 0 0 0 -3-3zm-3-14h2.91l-.16 2h-2.75zm0 4h2.58l-.17 2h-2.41zm0 4h2.25l-.17 2h-2.08zm-4-8h2v2h-2zm0 4h2v2h-2zm0 4h2v2h-2zm-4-8h2v2h-2zm0 4h2v2h-2zm0 4h2v2h-2zm-4-8h2v2h-2zm0 4h2v2h-2zm0 4h2v2h-2zm-7-10h-2a1 1 0 0 1 0-2h2a1 1 0 0 1 0 2zm10 20a1 1 0 1 1 1-1 1 1 0 0 1 -1 1zm8 0a1 1 0 1 1 1-1 1 1 0 0 1 -1 1z" fill="#3d9ae2"/><path d="m5 39h2v2h-2z" fill="#3d9ae2"/><path d="m9 39h4v2h-4z" fill="#3d9ae2"/><path d="m15 39h12v2h-12z" fill="#3d9ae2"/><path d="m12 35h10v2h-10z" fill="#3d9ae2"/><path d="m17 31h8v2h-8z" fill="#3d9ae2"/><path d="m13 31h2v2h-2z" fill="#3d9ae2"/><path d="m8 35h2v2h-2z" fill="#3d9ae2"/></g></svg>