<svg id="Capa_1" enable-background="new 0 0 512 512" height="512" viewBox="0 0 512 512" width="512" xmlns="http://www.w3.org/2000/svg" xmlns:xlink="http://www.w3.org/1999/xlink"><linearGradient id="SVGID_1_" gradientUnits="userSpaceOnUse" x1="256" x2="256" y1="512" y2="0"><stop offset="0" stop-color="#5558ff"/><stop offset="1" stop-color="#00c0ff"/></linearGradient><g><path d="m276 162h-180c-8.284 0-15 6.716-15 15v80c0 8.284 6.716 15 15 15h180c8.284 0 15-6.716 15-15v-80c0-8.284-6.716-15-15-15zm-15 80h-150v-50h150zm-130 75c0 8.284-6.716 15-15 15h-20c-8.284 0-15-6.716-15-15s6.716-15 15-15h20c8.284 0 15 6.716 15 15zm80 0c0 8.284-6.716 15-15 15h-20c-8.284 0-15-6.716-15-15s6.716-15 15-15h20c8.284 0 15 6.716 15 15zm80 0c0 8.284-6.716 15-15 15h-20c-8.284 0-15-6.716-15-15s6.716-15 15-15h20c8.284 0 15 6.716 15 15zm-160 60c0 8.284-6.716 15-15 15h-20c-8.284 0-15-6.716-15-15s6.716-15 15-15h20c8.284 0 15 6.716 15 15zm80 0c0 8.284-6.716 15-15 15h-20c-8.284 0-15-6.716-15-15s6.716-15 15-15h20c8.284 0 15 6.716 15 15zm80 0c0 8.284-6.716 15-15 15h-20c-8.284 0-15-6.716-15-15s6.716-15 15-15h20c8.284 0 15 6.716 15 15zm-160 60c0 8.284-6.716 15-15 15h-20c-8.284 0-15-6.716-15-15s6.716-15 15-15h20c8.284 0 15 6.716 15 15zm80 0c0 8.284-6.716 15-15 15h-20c-8.284 0-15-6.716-15-15s6.716-15 15-15h20c8.284 0 15 6.716 15 15zm80 0c0 8.284-6.716 15-15 15h-20c-8.284 0-15-6.716-15-15s6.716-15 15-15h20c8.284 0 15 6.716 15 15zm165-245h-105v-35c0-30.327-24.673-55-55-55h-5v-87c0-8.284-6.716-15-15-15h-180c-8.284 0-15 6.716-15 15v87h-5c-30.327 0-55 24.673-55 55v300c0 30.327 24.673 55 55 55h220c30.327 0 55-24.673 55-55v-15h105c19.299 0 35-15.701 35-35v-180c0-19.299-15.701-35-35-35zm-345-162h150v72h-150zm210 427c0 13.785-11.215 25-25 25h-220c-13.785 0-25-11.215-25-25v-300c0-13.785 11.215-25 25-25h220c13.785 0 25 11.215 25 25zm30-235h50v190h-50zm110 185c0 2.757-2.243 5-5 5h-25v-190h25c2.757 0 5 2.243 5 5z" fill="url(#SVGID_1_)"/></g></svg>